<?xml version="1.0" encoding="UTF-8" standalone="no"?>
<!DOCTYPE svg PUBLIC "-//W3C//DTD SVG 1.1//EN" "http://www.w3.org/Graphics/SVG/1.1/DTD/svg11.dtd">
<svg width="100%" height="100%" viewBox="0 0 12800 3072" version="1.1" xmlns="http://www.w3.org/2000/svg" xmlns:xlink="http://www.w3.org/1999/xlink" xml:space="preserve" xmlns:serif="http://www.serif.com/" style="fill-rule:evenodd;clip-rule:evenodd;stroke-linejoin:round;stroke-miterlimit:2;">
    <g transform="matrix(1,0,0,1,-8704,0)">
        <g id="text" transform="matrix(1.5625,0,0,0.375,8704,0)">
            <rect x="0" y="0" width="8192" height="8192" style="fill:none;"/>
            <clipPath id="_clip1">
                <rect x="0" y="0" width="8192" height="8192"/>
            </clipPath>
            <g clip-path="url(#_clip1)">
                <g transform="matrix(24.8649,0,0,104.744,-110497,-612850)">
                    <path d="M4668.12,5883.54C4665.25,5883.54 4662.52,5883.09 4659.92,5882.19C4657.32,5881.28 4655.04,5879.96 4653.09,5878.22L4658.04,5872.31C4661.31,5874.88 4664.78,5876.16 4668.44,5876.16C4669.63,5876.16 4670.55,5875.97 4671.19,5875.59C4671.83,5875.2 4672.15,5874.66 4672.15,5873.96C4672.15,5873.47 4672.01,5873.09 4671.72,5872.81C4671.43,5872.54 4670.95,5872.3 4670.28,5872.1C4669.6,5871.9 4668.41,5871.61 4666.7,5871.21C4664.01,5870.6 4661.83,5869.95 4660.15,5869.26C4658.47,5868.57 4657.12,5867.6 4656.11,5866.33C4655.11,5865.06 4654.6,5863.39 4654.6,5861.31C4654.6,5859.23 4655.11,5857.41 4656.14,5855.86C4657.16,5854.3 4658.61,5853.09 4660.49,5852.23C4662.37,5851.38 4664.55,5850.95 4667.02,5850.95C4672.28,5850.95 4676.68,5852.37 4680.22,5855.21L4675.78,5861.49C4674.34,5860.45 4672.84,5859.67 4671.28,5859.13C4669.73,5858.6 4668.23,5858.33 4666.79,5858.33C4665.75,5858.33 4664.96,5858.52 4664.41,5858.9C4663.86,5859.28 4663.58,5859.78 4663.58,5860.39C4663.58,5860.94 4663.74,5861.38 4664.04,5861.7C4664.35,5862.02 4664.88,5862.31 4665.65,5862.57C4666.41,5862.83 4667.59,5863.13 4669.18,5863.46C4671.86,5864.05 4674.06,5864.69 4675.75,5865.39C4677.45,5866.09 4678.76,5867.05 4679.69,5868.28C4680.63,5869.5 4681.09,5871.07 4681.09,5873C4681.09,5876.3 4679.92,5878.88 4677.59,5880.74C4675.25,5882.61 4672.09,5883.54 4668.12,5883.54Z" style="fill-rule:nonzero;"/>
                </g>
                <g transform="matrix(24.8649,0,0,104.744,-110465,-612850)">
                    <path d="M4696.49,5883.54C4693.62,5883.54 4690.89,5883.09 4688.29,5882.19C4685.69,5881.28 4683.41,5879.96 4681.46,5878.22L4686.41,5872.31C4689.68,5874.88 4693.15,5876.16 4696.81,5876.16C4698.01,5876.16 4698.92,5875.97 4699.56,5875.59C4700.2,5875.2 4700.53,5874.66 4700.53,5873.96C4700.53,5873.47 4700.38,5873.09 4700.09,5872.81C4699.8,5872.54 4699.32,5872.3 4698.65,5872.1C4697.98,5871.9 4696.78,5871.61 4695.07,5871.21C4692.38,5870.6 4690.2,5869.95 4688.52,5869.26C4686.84,5868.57 4685.49,5867.6 4684.48,5866.33C4683.48,5865.06 4682.97,5863.39 4682.97,5861.31C4682.97,5859.23 4683.48,5857.41 4684.51,5855.86C4685.53,5854.3 4686.98,5853.09 4688.86,5852.23C4690.74,5851.38 4692.92,5850.95 4695.39,5850.95C4700.65,5850.95 4705.05,5852.37 4708.59,5855.21L4704.15,5861.49C4702.71,5860.45 4701.21,5859.67 4699.65,5859.13C4698.1,5858.6 4696.6,5858.33 4695.16,5858.33C4694.12,5858.33 4693.33,5858.52 4692.78,5858.9C4692.23,5859.28 4691.95,5859.78 4691.95,5860.39C4691.95,5860.94 4692.11,5861.38 4692.41,5861.7C4692.72,5862.02 4693.25,5862.31 4694.02,5862.57C4694.78,5862.83 4695.96,5863.13 4697.55,5863.46C4700.24,5864.05 4702.43,5864.69 4704.12,5865.39C4705.82,5866.09 4707.13,5867.05 4708.07,5868.28C4709,5869.5 4709.46,5871.07 4709.46,5873C4709.46,5876.3 4708.3,5878.88 4705.96,5880.74C4703.62,5882.61 4700.47,5883.54 4696.49,5883.54Z" style="fill-rule:nonzero;"/>
                </g>
                <g transform="matrix(25.8567,0,0,108.403,-115159,-634319)">
                    <path d="M4738.89,5859.43L4722.43,5859.43L4722.43,5862.96L4737.42,5862.96L4737.42,5870.89L4722.43,5870.89L4722.43,5875.06L4738.89,5875.06L4738.89,5882.99L4713.54,5882.99L4713.54,5851.5L4738.89,5851.5L4738.89,5859.43Z" style="fill-rule:nonzero;"/>
                </g>
                <g transform="matrix(26.8102,0,0,108.403,-119687,-634319)">
                    <path d="M4751.58,5859.43L4742.28,5859.43L4742.28,5851.5L4769.78,5851.5L4769.78,5859.43L4760.48,5859.43L4760.48,5882.99L4751.58,5882.99L4751.58,5859.43Z" style="fill-rule:nonzero;"/>
                </g>
                <g transform="matrix(23.895,0,0,104.744,-110034,-608071)">
                    <path d="M4831.15,5883.54C4828.1,5883.54 4825.25,5882.8 4822.63,5881.32C4820,5879.83 4817.9,5877.84 4816.35,5875.34C4814.79,5872.83 4814.01,5870.12 4814.01,5867.22C4814.01,5864.32 4814.79,5861.62 4816.35,5859.13C4817.9,5856.64 4820,5854.66 4822.63,5853.17C4825.25,5851.69 4828.1,5850.95 4831.15,5850.95C4834.21,5850.95 4837.05,5851.69 4839.68,5853.17C4842.3,5854.66 4844.4,5856.64 4845.95,5859.13C4847.51,5861.62 4848.29,5864.32 4848.29,5867.22C4848.29,5870.12 4847.51,5872.83 4845.95,5875.34C4844.4,5877.84 4842.3,5879.83 4839.68,5881.32C4837.05,5882.8 4834.21,5883.54 4831.15,5883.54ZM4831.15,5875.47C4832.56,5875.47 4833.87,5875.1 4835.09,5874.35C4836.32,5873.6 4837.29,5872.59 4838.03,5871.32C4838.76,5870.06 4839.13,5868.69 4839.13,5867.22C4839.13,5865.76 4838.76,5864.4 4838.03,5863.14C4837.29,5861.89 4836.32,5860.89 4835.09,5860.14C4833.87,5859.39 4832.56,5859.02 4831.15,5859.02C4829.74,5859.02 4828.43,5859.39 4827.21,5860.14C4825.99,5860.89 4825.01,5861.89 4824.28,5863.14C4823.54,5864.4 4823.18,5865.76 4823.18,5867.22C4823.18,5868.69 4823.54,5870.06 4824.28,5871.32C4825.01,5872.59 4825.99,5873.6 4827.21,5874.35C4828.43,5875.1 4829.74,5875.47 4831.15,5875.47Z" style="fill-rule:nonzero;"/>
                </g>
                <g transform="matrix(25.0287,0,0,108.403,-115552,-629541)">
                    <path d="M4870.11,5882.99L4863.46,5873.5L4861.31,5873.5L4861.31,5882.99L4852.42,5882.99L4852.42,5851.5L4867.5,5851.5C4869.82,5851.5 4871.9,5851.97 4873.73,5852.9C4875.56,5853.83 4876.99,5855.13 4878.02,5856.8C4879.04,5858.46 4879.55,5860.36 4879.55,5862.5C4879.55,5864.79 4878.95,5866.82 4877.76,5868.57C4876.57,5870.33 4874.94,5871.64 4872.86,5872.49L4880.24,5882.99L4870.11,5882.99ZM4861.31,5865.44L4866.76,5865.44C4867.8,5865.44 4868.67,5865.16 4869.35,5864.61C4870.04,5864.06 4870.38,5863.36 4870.38,5862.5C4870.38,5861.65 4870.04,5860.94 4869.35,5860.39C4868.67,5859.84 4867.8,5859.57 4866.76,5859.57L4861.31,5859.57L4861.31,5865.44Z" style="fill-rule:nonzero;"/>
                </g>
                <g transform="matrix(25.6105,0,0,104.744,-118352,-608071)">
                    <path d="M4897.56,5864.56L4912.32,5864.56L4912.32,5877.95C4910.7,5879.72 4908.75,5881.1 4906.45,5882.07C4904.16,5883.05 4901.78,5883.54 4899.31,5883.54C4896.19,5883.54 4893.29,5882.81 4890.62,5881.34C4887.95,5879.87 4885.83,5877.89 4884.27,5875.38C4882.71,5872.88 4881.93,5870.16 4881.93,5867.22C4881.93,5864.29 4882.72,5861.58 4884.3,5859.09C4885.87,5856.6 4887.98,5854.62 4890.64,5853.15C4893.3,5851.69 4896.19,5850.95 4899.31,5850.95C4901.78,5850.95 4904.16,5851.44 4906.45,5852.42C4908.75,5853.4 4910.7,5854.76 4912.32,5856.5L4905.77,5862.23C4904.97,5861.22 4904.01,5860.43 4902.88,5859.87C4901.75,5859.3 4900.56,5859.02 4899.31,5859.02C4897.84,5859.02 4896.48,5859.39 4895.23,5860.14C4893.97,5860.89 4892.97,5861.89 4892.22,5863.14C4891.48,5864.4 4891.1,5865.76 4891.1,5867.22C4891.1,5868.72 4891.47,5870.1 4892.2,5871.35C4892.93,5872.6 4893.94,5873.6 4895.2,5874.35C4896.47,5875.1 4897.84,5875.47 4899.31,5875.47C4900.86,5875.47 4902.33,5875.05 4903.7,5874.19L4903.7,5871.12L4897.56,5871.12L4897.56,5864.56Z" style="fill-rule:nonzero;"/>
                </g>
                <g transform="matrix(25.8567,0,0,108.403,-119603,-629541)">
                    <path d="M4942.43,5859.43L4925.98,5859.43L4925.98,5862.96L4940.97,5862.96L4940.97,5870.89L4925.98,5870.89L4925.98,5875.06L4942.43,5875.06L4942.43,5882.99L4917.09,5882.99L4917.09,5851.5L4942.43,5851.5L4942.43,5859.43Z" style="fill-rule:nonzero;"/>
                </g>
                <g transform="matrix(1.28295,0,0,5.33333,-1325.65,-30037.3)">
                    <path d="M4353.62,6272L4609.03,5632L4800.59,5632L5056,6272L4864.44,6272L4704.81,5824L4545.18,6272L4353.62,6272Z"/>
                </g>
                <g transform="matrix(1.28,0,0,5.33333,-1310.72,-30030.5)">
                    <path d="M4352,7166.71L4352,6782.71L4832,6782.71L4832,6942.71L4512,6944L4512,7166.71L4352,7166.71Z"/>
                </g>
                <g transform="matrix(1.28,0,0,5.33333,-1310.72,-31402.7)">
                    <rect x="4352" y="6784" width="512" height="160"/>
                </g>
                <g transform="matrix(1.28,0,0,5.33333,-15892.5,-29354.7)">
                    <path d="M13440,5632L13440,5504L15488,5504L15488,5760C15205.4,5760 14976,5989.42 14976,6272C14976,6554.58 15205.4,6784 15488,6784L15488,7040L14656,7040C14656,6898.71 14541.3,6784 14400,6784C14258.7,6784 14144,6898.71 14144,7040L13440,7040L13440,6784C13616.6,6784 13760,6640.61 13760,6464C13760,6287.39 13616.6,6144 13440,6144C13021.5,6144 12649.6,5942.79 12416,5632L13440,5632Z"/>
                </g>
            </g>
        </g>
    </g>
</svg>
